<svg width="49" height="55" viewBox="0 0 49 55" fill="none" xmlns="http://www.w3.org/2000/svg">
<path d="M46.3975 17.9635C46.1445 17.3838 45.472 17.1163 44.8889 17.3703C44.3092 17.6232 44.0428 18.2985 44.2957 18.8789C47.8646 27.0743 46.0863 36.4534 39.7643 42.7748C35.6863 46.8529 30.2641 49.099 24.4973 49.099C19.4628 49.099 14.6911 47.3867 10.8469 44.2384L18.9342 42.5063C19.5531 42.3736 19.9481 41.7642 19.815 41.1454C19.6818 40.5265 19.0684 40.1309 18.4553 40.2646L8.17955 42.4654C7.56064 42.598 7.16559 43.2075 7.29874 43.8263L9.49896 54.1027C9.76166 55.1377 10.7402 55.0038 10.8588 54.9835C11.4344 54.8848 11.8726 54.2414 11.7395 53.6226L10.2544 46.6838C14.3494 49.7389 19.2963 51.3911 24.4974 51.3911C30.8764 51.3911 36.8738 48.9066 41.3851 44.3954C48.3783 37.4036 50.3457 27.0289 46.3975 17.9635Z" fill="#454F5B"/>
<path d="M9.23491 12.2352C17.133 4.33666 29.6778 3.85 38.1518 10.7721L30.0651 12.5039C29.4462 12.6364 29.0512 13.2459 29.1844 13.8647C29.2997 14.4024 29.7741 14.7705 30.3034 14.7705C30.3658 14.8597 40.8209 12.5446 40.8209 12.5446C41.706 12.3444 41.7655 11.4809 41.7016 11.1838L39.5003 0.907605C39.3682 0.289264 38.7561 -0.109716 38.1405 0.0267949C37.5218 0.159377 37.1266 0.768849 37.2597 1.38764L38.7469 8.33185C29.4013 1.37899 16.0889 2.13912 7.61429 10.6148C0.622037 17.6064 -1.34547 27.9818 2.60178 37.0473C2.78971 37.4787 3.30892 37.944 4.11036 37.6405C4.66292 37.4314 4.95648 36.7121 4.70356 36.1319C1.13463 27.9364 2.91297 18.5566 9.23491 12.2352Z" fill="#454F5B"/>
<path d="M13.7307 27.8206L10.0934 31.4748V33.1898H18.2926V31.2515H12.8557L15.6677 28.3865C16.5268 27.507 17.1154 26.7866 17.4357 26.2262C17.7558 25.6658 17.9159 25.0761 17.9159 24.4594C17.9159 23.3613 17.537 22.4952 16.784 21.8605C16.0286 21.2257 15.1514 20.9088 14.1501 20.9088C13.1488 20.9088 12.3326 21.1084 11.6966 21.5086C11.0629 21.909 10.4811 22.5043 9.95575 23.2924L11.5861 24.236C12.2378 23.2303 13.0542 22.7263 14.0395 22.7263C14.5988 22.7263 15.0611 22.8955 15.4285 23.2326C15.7938 23.5698 15.9766 23.979 15.9766 24.4594C15.9766 24.9397 15.8053 25.4144 15.4626 25.8823C15.1198 26.3515 14.5425 26.9976 13.7307 27.8206Z" fill="#454F5B"/>
<path d="M26.9022 33.1899V30.1715H28.3431V28.3359H26.9022V26.1406H24.9809V28.3359H22.117L26.4557 21.1998H24.2435L19.8351 28.3866V30.1715H24.9809V33.1899H26.9022Z" fill="#454F5B"/>
<path d="M38.8065 33.1899V27.5985C38.8065 26.409 38.4908 25.5002 37.8548 24.8711C37.2211 24.242 36.389 23.9274 35.3586 23.9274C34.7181 23.9274 34.1205 24.0875 33.5657 24.4077C33.0109 24.7279 32.5984 25.1687 32.3232 25.728V20.4794H30.4019V33.19H32.3232V28.2503C32.3232 27.4035 32.569 26.7609 33.0606 26.3201C33.5522 25.8802 34.1294 25.6604 34.7924 25.6604C36.1883 25.6604 36.885 26.5004 36.885 28.1816V33.19H38.8065V33.1899Z" fill="#454F5B"/>
</svg>
