<svg width="54" height="54" viewBox="0 0 54 54" fill="none" xmlns="http://www.w3.org/2000/svg">
<path fill-rule="evenodd" clip-rule="evenodd" d="M11.88 5.32001H42.12C46.2953 5.32001 49.68 8.70473 49.68 12.88V28C49.68 32.1753 46.2953 35.56 42.12 35.56H11.88C7.70473 35.56 4.32001 32.1753 4.32001 28V12.88C4.32001 8.70473 7.70473 5.32001 11.88 5.32001ZM49.68 34.48V33.4C49.68 33.4 48.048 37.3538 42.12 37.72H11.88C5.82514 37.2729 4.32001 33.4 4.32001 33.4V34.48C4.32001 38.6553 7.70473 42.04 11.88 42.04H42.12C46.2953 42.04 49.68 38.6553 49.68 34.48ZM49.68 40.96V39.88C49.68 39.88 48.048 43.8338 42.12 44.2H11.88C5.82514 43.7529 4.32001 39.88 4.32001 39.88V40.96C4.32001 45.1353 7.70473 48.52 11.88 48.52H42.12C46.2953 48.52 49.68 45.1353 49.68 40.96ZM31.32 13.96H28.08V12.88C28.08 12.2835 27.5965 11.8 27 11.8C26.4035 11.8 25.92 12.2835 25.92 12.88V13.96H24.8701C23.0807 13.96 21.6301 15.4106 21.6301 17.2V18.2816C21.6301 20.071 23.0807 21.5216 24.8701 21.5216H29.16C29.7565 21.5216 30.24 22.0052 30.24 22.6016V23.68C30.24 24.2765 29.7565 24.76 29.16 24.76H23.7865C23.742 24.2197 23.2977 23.7873 22.743 23.7704C22.1468 23.7523 21.6488 24.2209 21.6306 24.8171L21.6005 25.8072C21.582 26.4162 22.0707 26.92 22.68 26.92H25.92V27.9811C25.92 28.5776 26.4035 29.0611 27 29.0611C27.5965 29.0611 28.08 28.5776 28.08 27.9811V26.92H29.16C30.9494 26.92 32.4 25.4694 32.4 23.68V22.6016C32.4 20.8122 30.9494 19.3616 29.16 19.3616H24.8701C24.2737 19.3616 23.7901 18.8781 23.7901 18.2816V17.2C23.7901 16.6035 24.2737 16.12 24.8701 16.12H30.2721C30.3893 16.5897 30.814 16.9377 31.32 16.9377C31.9165 16.9377 32.4 16.4541 32.4 15.8577V15.04C32.4 14.4435 31.9165 13.96 31.32 13.96Z" fill="#454F5B"/>
</svg>
