<svg width="44" height="46" viewBox="0 0 44 46" fill="none" xmlns="http://www.w3.org/2000/svg">
<path fill-rule="evenodd" clip-rule="evenodd" d="M16.3571 21.0088L23.8928 28.9412C24.7098 29.8012 26.1895 29.9239 27.8379 29.1136C32.0331 27.3786 33.4289 26.9556 34.2257 27.7944L42.8881 36.9127C43.9121 37.9905 43.6388 39.7859 42.4938 40.9912C36.5481 47.2497 26.8842 47.2497 20.9386 40.9912L4.75689 23.9578C-1.15896 17.7306 -1.15896 7.65607 4.75689 1.42886C5.92609 0.198124 7.72161 -0.104698 8.78414 1.01376L17.4465 10.132C18.1973 10.9224 17.7947 12.3944 16.1555 16.7804C15.3934 18.4925 15.5156 20.123 16.3571 21.0088Z" fill="#454F5B"/>
</svg>
